<?xml version="1.0" encoding="UTF-8"?>
<svg version="1.1" xmlns="http://www.w3.org/2000/svg" width="32" height="32">
<path d="M0 0 C2.06480716 -0.04287938 4.13120656 0.00541522 6.1953125 0.07421875 C7.80939808 1.68830433 7.36427765 3.43806283 7.390625 5.66796875 C7.36043043 21.0619488 7.36043043 21.0619488 4.19140625 26.53515625 C-1.39247067 32.07421875 -1.39247067 32.07421875 -4.8046875 32.07421875 C-5.64491938 27.72089139 -5.91239745 23.62979356 -5.8671875 19.19921875 C-5.85816406 18.04679687 -5.84914063 16.894375 -5.83984375 15.70703125 C-5.82824219 14.83820312 -5.81664063 13.969375 -5.8046875 13.07421875 C-6.8565625 13.09162109 -6.8565625 13.09162109 -7.9296875 13.109375 C-13.66581852 13.16393059 -19.13247003 12.93040252 -24.8046875 12.07421875 C-22.64610411 7.43991413 -20.16130715 3.86598176 -15.8046875 1.07421875 C-10.54978689 -0.08902823 -5.34818215 0.14152571 0 0 Z " fill="#1E2C52" transform="translate(24.8046875,-0.07421875)"/>
<path d="M0 0 C2.05333446 -0.01946289 4.10702443 0.00426366 6.16015625 0.0390625 C4.74277795 1.73790599 3.31121112 3.41918329 1.8515625 5.08203125 C0.79815637 6.30086837 -0.22226071 7.55006023 -1.1875 8.83984375 C-3.40459618 11.54819156 -4.85552617 12.88181361 -8.3828125 13.4453125 C-11.24038407 13.47684432 -13.99689227 13.32375863 -16.83984375 13.0390625 C-17.66097656 12.95785156 -18.48210938 12.87664063 -19.328125 12.79296875 C-21.17023534 12.58029171 -23.00626734 12.31582875 -24.83984375 12.0390625 C-22.68126036 7.40475788 -20.1964634 3.83082551 -15.83984375 1.0390625 C-10.57559988 -0.12625275 -5.36097538 0.07374106 0 0 Z " fill="#228FCE" transform="translate(24.83984375,-0.0390625)"/>
</svg>
